<svg xmlns="http://www.w3.org/2000/svg" version="1.1" viewBox="-5.0 -10.0 110.0 135.0">
 <path d="m32.73 51.207v12.336c0 1.5742 1.2812 2.8555 2.8555 2.8555h30.027c1.5742 0 2.8555-1.2812 2.8555-2.8555l0.003906-12.594c6.0703-1.7461 10.355-7.3477 10.355-13.766 0-7.8984-6.4258-14.328-14.328-14.328-0.21094 0-0.42969 0.007812-0.65234 0.019531-2.0508-5.4688-7.3281-9.1875-13.246-9.1875-6.1289 0-11.551 4-13.445 9.7109-0.96484-0.20703-1.9453-0.3125-2.9258-0.3125-2.7383 0-5.4453 0.80078-8.0352 2.3828-1.8906 1.1523-3.4062 2.8008-4.375 4.7695-2.3945 4.8438-2.2344 10.082 0.42969 14.375 2.3242 3.75 6.168 6.1406 10.48 6.5938zm-9.5664-20.301c0.84766-1.7109 2.1836-3.1602 3.8125-4.1523 2.4961-1.5195 4.9531-2.1641 7.2539-2.1641 1.3945 0 2.7305 0.23438 3.9805 0.65234 1.2031-5.7422 6.2891-10.055 12.387-10.055 5.8242 0 10.719 3.9414 12.195 9.2969 0.55859-0.074219 1.125-0.125 1.7031-0.125 7.0859 0 12.828 5.7422 12.828 12.828 0 6.2383-4.4531 11.43-10.355 12.586v13.77c0 0.75-0.60938 1.3555-1.3555 1.3555h-30.027c-0.75 0-1.3555-0.60938-1.3555-1.3555v-13.758c-8.9766 0-15.758-9.3867-11.066-18.879z"/>
 <path d="m55.551 20.098c1.5742 1.0078 2.793 2.4453 3.5195 4.1602 0.12109 0.28516 0.39844 0.45703 0.69141 0.45703 0.097656 0 0.19531-0.019532 0.29297-0.058594 0.38281-0.16406 0.55859-0.60156 0.39844-0.98438-0.84375-1.9922-2.2578-3.6641-4.0898-4.8359-0.34766-0.22266-0.8125-0.12109-1.0352 0.22656-0.23047 0.34766-0.12891 0.80859 0.22266 1.0352z"/>
 <path d="m66.547 28.039c0.64844 0.14453 1.2852 0.36328 1.8906 0.64063 2.125 0.98828 3.793 2.7188 4.7031 4.875 0.12109 0.28906 0.39844 0.46094 0.69141 0.46094 0.097657 0 0.19531-0.019531 0.28906-0.058594 0.38281-0.16016 0.5625-0.60156 0.39844-0.98438-1.0547-2.5-2.9922-4.5078-5.4531-5.6523-0.70312-0.32812-1.4414-0.57812-2.1953-0.74609-0.40625-0.09375-0.80469 0.16406-0.89453 0.56641-0.085937 0.40625 0.16797 0.80859 0.57031 0.89844z"/>
 <path d="m77.75 71.969c-0.12891 0-0.26172 0.015625-0.39453 0.054688-0.74609 0.20312-1.2148 0.9375-1.0859 1.6992 0.14453 0.83984-0.054687 1.5859-0.59375 2.2227-0.76562 0.90625-2.1055 1.4492-3.582 1.4492-1.6289 0-3.2461-0.66016-4.5586-1.8555-2.5-2.2773-6.6797-6.0898-11.324-6.0898-1.9844 0-3.8516 0.72266-5.1875 1.9336-1.3359-1.2109-3.2031-1.9336-5.1875-1.9336-4.6445 0-8.8281 3.8125-11.324 6.0898-1.3125 1.1953-2.9336 1.8555-4.5586 1.8555-1.4766 0-2.8164-0.54297-3.582-1.4492-0.53516-0.63672-0.73438-1.3828-0.59375-2.2227 0.12891-0.76172-0.33984-1.4961-1.0859-1.6992-0.13281-0.035157-0.26562-0.054688-0.39453-0.054688-0.60938 0-1.1758 0.375-1.4023 0.96875-0.10547 0.27734-2.5273 6.8477 2.1367 10.645 2.4453 1.9922 5.5 3 9.0859 3 4.6133 0 10.016-1.7656 14.453-4.7227 0.82422-0.54688 1.6992-1.1797 2.4531-1.9258 0.75391 0.75 1.6289 1.3789 2.4531 1.9258 4.4375 2.957 9.8398 4.7227 14.453 4.7227 3.582 0 6.6406-1.0078 9.0859-3 4.6641-3.7969 2.2422-10.367 2.1367-10.645-0.22656-0.59375-0.79297-0.96875-1.4023-0.96875zm-1.6836 10.449c-2.3359 1.9023-5.1875 2.6641-8.1367 2.6641-4.8633 0-10.004-2.0625-13.621-4.4688-1.2969-0.86328-2.5977-1.8555-3.2852-3.0977-0.6875 1.2422-1.9883 2.2344-3.2852 3.0977-3.6172 2.4102-8.7617 4.4688-13.621 4.4688-2.9531 0-5.8008-0.76172-8.1367-2.6641-3.8789-3.1562-1.6797-8.9492-1.6797-8.9492-0.53906 3.1445 2.2734 5.4219 5.6523 5.4219 1.8398 0 3.8438-0.67188 5.5703-2.2461 2.4805-2.2617 6.332-5.6992 10.316-5.6992 2.3164 0 4.3008 1.1602 5.1875 2.8203 0.88672-1.6602 2.8711-2.8203 5.1875-2.8203 3.9844 0 7.832 3.4375 10.316 5.6992 1.7266 1.5742 3.7344 2.2461 5.5703 2.2461 3.3789 0 6.1914-2.2773 5.6523-5.4219-0.003906 0 2.1914 5.793-1.6875 8.9492z"/>
 <path d="m36.496 61.129h27.816c0.41406 0 0.75-0.33594 0.75-0.75 0-0.41406-0.33594-0.75-0.75-0.75h-27.816c-0.41406 0-0.75 0.33594-0.75 0.75 0 0.41406 0.33594 0.75 0.75 0.75z"/>
<text x="0.0" y="117.5" font-size="5.0" font-weight="bold" font-family="Arbeit Regular, Helvetica, Arial-Unicode, Arial, Sans-serif" fill="#000000">Created by chonri510</text><text x="0.0" y="122.5" font-size="5.0" font-weight="bold" font-family="Arbeit Regular, Helvetica, Arial-Unicode, Arial, Sans-serif" fill="#000000">from Noun Project</text></svg>